<svg width="25" height="25" viewBox="0 0 25 25" fill="none" xmlns="http://www.w3.org/2000/svg">
<path d="M5.63657 11.9369H20.4346C20.6308 11.9369 20.819 12.0149 20.9578 12.1536C21.0965 12.2924 21.1745 12.4806 21.1745 12.6768C21.1745 12.8731 21.0965 13.0613 20.9578 13.2C20.819 13.3388 20.6308 13.4167 20.4346 13.4167H5.63657C5.44033 13.4167 5.25214 13.3388 5.11338 13.2C4.97462 13.0613 4.89667 12.8731 4.89667 12.6768C4.89667 12.4806 4.97462 12.2924 5.11338 12.1536C5.25214 12.0149 5.44033 11.9369 5.63657 11.9369Z" fill="#3B3B3B"/>
<path d="M5.9429 12.6768L12.0796 18.8121C12.2186 18.951 12.2966 19.1394 12.2966 19.3359C12.2966 19.5324 12.2186 19.7208 12.0796 19.8598C11.9407 19.9987 11.7523 20.0768 11.5558 20.0768C11.3593 20.0768 11.1709 19.9987 11.0319 19.8598L4.37283 13.2007C4.30393 13.1319 4.24926 13.0503 4.21196 12.9604C4.17466 12.8705 4.15546 12.7741 4.15546 12.6768C4.15546 12.5795 4.17466 12.4831 4.21196 12.3932C4.24926 12.3034 4.30393 12.2217 4.37283 12.153L11.0319 5.49386C11.1709 5.35493 11.3593 5.27688 11.5558 5.27688C11.7523 5.27688 11.9407 5.35493 12.0796 5.49386C12.2186 5.6328 12.2966 5.82123 12.2966 6.01771C12.2966 6.2142 12.2186 6.40263 12.0796 6.54156L5.9429 12.6768Z" fill="#3B3B3B"/>
</svg>
